<svg xmlns="http://www.w3.org/2000/svg" xmlns:xlink="http://www.w3.org/1999/xlink" width="14" height="16" version="1.1" viewBox="0 0 14 16"><title>action_assignment_late_black_24dp</title><desc>Created with Sketch.</desc><g id="Post-Research" fill="none" fill-rule="evenodd" stroke="none" stroke-width="1"><g id="home---1" transform="translate(-217.000000, -356.000000)"><g id="Group-3" transform="translate(0.000000, 66.000000)"><g id="Group-6" transform="translate(31.000000, 162.000000)"><g id="Group-10-Copy-2" transform="translate(16.000000, 127.000000)"><g id="action_assignment_late_black_24dp" transform="translate(168.000000, 1.000000)"><polygon id="Path" points="0 0 18 0 18 18 0 18"/><g id="Group-9" fill-rule="nonzero" transform="translate(2.250000, 0.750000)"><path id="Shape" fill="#B23C66" d="M12,1.5 L8.865,1.5 C8.55,0.63 7.725,0 6.75,0 C5.775,0 4.95,0.63 4.635,1.5 L1.5,1.5 C0.675,1.5 0,2.175 0,3 L0,13.5 C0,14.325 0.675,15 1.5,15 L12,15 C12.825,15 13.5,14.325 13.5,13.5 L13.5,3 C13.5,2.175 12.825,1.5 12,1.5 Z M6.75,3 C6.3375,3 6,2.6625 6,2.25 C6,1.8375 6.3375,1.5 6.75,1.5 C7.1625,1.5 7.5,1.8375 7.5,2.25 C7.5,2.6625 7.1625,3 6.75,3 Z"/><g id="content_add_white_18dp" fill="#FFF" transform="translate(3.750000, 5.000000)"><polygon id="Path" points="6 3.929 3.429 3.929 3.429 6.5 2.571 6.5 2.571 3.929 0 3.929 0 3.071 2.571 3.071 2.571 .5 3.429 .5 3.429 3.071 6 3.071"/></g></g></g></g></g></g></g></g></svg>