<svg xmlns="http://www.w3.org/2000/svg" width="53" height="53" fill="none" viewBox="0 0 53 53"><rect width="53" height="53" fill="#F2F2F2"/><g clip-path="url(#clip0)"><rect width="1440" height="1422" fill="#fff" transform="translate(-173 -570)"/><rect width="1440" height="686.808" x="-172.458" y="-502" fill="#F7F8F8"/><g filter="url(#filter0_dd)"><g clip-path="url(#clip1)"><rect width="357" height="160" x="-24.703" y="-24" fill="#fff" rx="4"/><circle cx="26.85" cy="26.642" r="25" stroke="#B23C66" stroke-width="2"/><path fill="#A54167" d="M36.7539 34.3359C36.7539 35.5734 35.7414 36.5859 34.5039 36.5859H18.7539C17.5164 36.5859 16.5039 35.5734 16.5039 34.3359V18.5859C16.5039 17.3484 17.5164 16.3359 18.7539 16.3359H24.9414C24.6039 17.2359 24.3789 18.1359 24.3789 19.1484C24.3789 23.1984 27.6414 26.4609 31.6914 26.4609C32.5914 26.4609 33.3789 26.3484 34.0539 26.0109L36.7539 28.7109V34.3359ZM35.9664 21.8484C36.4164 21.0609 36.7539 20.1609 36.7539 19.1484C36.7539 16.3359 34.5039 14.0859 31.6914 14.0859C28.8789 14.0859 26.6289 16.3359 26.6289 19.1484C26.6289 21.9609 28.8789 24.2109 31.6914 24.2109C32.7039 24.2109 33.6039 23.8734 34.3914 23.4234L37.8789 26.9109L39.4539 25.3359L35.9664 21.8484ZM31.6914 21.9609C30.1164 21.9609 28.8789 20.7234 28.8789 19.1484C28.8789 17.5734 30.1164 16.3359 31.6914 16.3359C33.2664 16.3359 34.5039 17.5734 34.5039 19.1484C34.5039 20.7234 33.2664 21.9609 31.6914 21.9609Z"/></g></g></g><defs><filter id="filter0_dd" width="363" height="166" x="-27.703" y="-26" color-interpolation-filters="sRGB" filterUnits="userSpaceOnUse"><feFlood flood-opacity="0" result="BackgroundImageFix"/><feColorMatrix in="SourceAlpha" type="matrix" values="0 0 0 0 0 0 0 0 0 0 0 0 0 0 0 0 0 0 127 0"/><feOffset dy="1"/><feGaussianBlur stdDeviation="1.5"/><feColorMatrix type="matrix" values="0 0 0 0 0.235294 0 0 0 0 0.25098 0 0 0 0 0.262745 0 0 0 0.15 0"/><feBlend in2="BackgroundImageFix" mode="normal" result="effect1_dropShadow"/><feColorMatrix in="SourceAlpha" type="matrix" values="0 0 0 0 0 0 0 0 0 0 0 0 0 0 0 0 0 0 127 0"/><feOffset dy="1"/><feGaussianBlur stdDeviation="1"/><feColorMatrix type="matrix" values="0 0 0 0 0.235294 0 0 0 0 0.25098 0 0 0 0 0.262745 0 0 0 0.3 0"/><feBlend in2="effect1_dropShadow" mode="normal" result="effect2_dropShadow"/><feBlend in="SourceGraphic" in2="effect2_dropShadow" mode="normal" result="shape"/></filter><clipPath id="clip0"><rect width="1440" height="1422" fill="#fff" transform="translate(-173 -570)"/></clipPath><clipPath id="clip1"><rect width="357" height="160" x="-24.703" y="-24" fill="#fff" rx="4"/></clipPath></defs></svg>