<svg xmlns="http://www.w3.org/2000/svg" xmlns:xlink="http://www.w3.org/1999/xlink" width="19" height="21" version="1.1" viewBox="0 0 19 21"><title>Shape</title><desc>Created with Sketch.</desc><g id="Symbols" fill="none" fill-rule="evenodd" stroke="none" stroke-width="1"><g id="nav---create" fill="#B23C66" fill-rule="nonzero" transform="translate(-1243.000000, -23.000000)"><g id="nav"><g id="Group-4-Copy-3"><g id="Group-5"><g id="Group-14-Copy" transform="translate(1227.000000, 17.000000)"><g id="Group-6-Copy-4" transform="translate(16.000000, 6.000000)"><path id="Shape" d="M16.8888889,2.1 L12.4713889,2.1 C12.0386111,0.882 10.8775,0 9.5,0 C8.1225,0 6.96138889,0.882 6.52861111,2.1 L2.11111111,2.1 C0.944722222,2.1 0,3.03975 0,4.2 L0,18.9 C0,20.06025 0.944722222,21 2.11111111,21 L16.8888889,21 C18.0552778,21 19,20.06025 19,18.9 L19,4.2 C19,3.03975 18.0552778,2.1 16.8888889,2.1 Z M9.5,1.75 C10.153125,1.75 10.6875,2.26916667 10.6875,2.91666667 C10.6875,3.56416667 10.153125,4.08333333 9.5,4.08333333 C8.846875,4.08333333 8.3125,3.56416667 8.3125,2.91666667 C8.3125,2.26916667 8.846875,1.75 9.5,1.75 Z"/></g></g></g></g></g></g></g></svg>